<mxfile host="Electron" agent="Mozilla/5.0 (Windows NT 10.0; Win64; x64) AppleWebKit/537.36 (KHTML, like Gecko) draw.io/26.0.16 Chrome/132.0.6834.196 Electron/34.2.0 Safari/537.36" version="26.0.16">
  <diagram name="페이지-1" id="kP13POGpLMGx_-h36UAt">
    <mxGraphModel dx="792" dy="1180" grid="1" gridSize="10" guides="1" tooltips="1" connect="1" arrows="1" fold="1" page="1" pageScale="1" pageWidth="827" pageHeight="1169" math="0" shadow="0">
      <root>
        <mxCell id="0" />
        <mxCell id="1" parent="0" />
        <mxCell id="OseakSPfjknjiO-h243P-1" value="&lt;b&gt;&lt;font style=&quot;font-size: 24px;&quot;&gt;APB&lt;/font&gt;&lt;/b&gt;&lt;div&gt;&lt;b&gt;&lt;font style=&quot;font-size: 24px;&quot;&gt;SLAVE INTERFACE&lt;/font&gt;&lt;/b&gt;&lt;/div&gt;" style="rounded=1;whiteSpace=wrap;html=1;verticalAlign=top;" parent="1" vertex="1">
          <mxGeometry x="150" y="320" width="250" height="455" as="geometry" />
        </mxCell>
        <mxCell id="OseakSPfjknjiO-h243P-3" value="&lt;b&gt;&lt;font style=&quot;font-size: 22px;&quot;&gt;IDR&lt;/font&gt;&lt;/b&gt;" style="rounded=1;whiteSpace=wrap;html=1;verticalAlign=top;" parent="1" vertex="1">
          <mxGeometry x="264" y="415" width="120" height="122.5" as="geometry" />
        </mxCell>
        <mxCell id="OseakSPfjknjiO-h243P-4" value="&lt;b&gt;&lt;font style=&quot;font-size: 22px;&quot;&gt;ODR&lt;/font&gt;&lt;/b&gt;" style="rounded=1;whiteSpace=wrap;html=1;verticalAlign=top;" parent="1" vertex="1">
          <mxGeometry x="264" y="585" width="120" height="122.5" as="geometry" />
        </mxCell>
        <mxCell id="OseakSPfjknjiO-h243P-5" value="&lt;b&gt;&lt;font style=&quot;font-size: 18px;&quot;&gt;UDR&lt;/font&gt;&lt;/b&gt;" style="rounded=1;whiteSpace=wrap;html=1;" parent="1" vertex="1">
          <mxGeometry x="264" y="455" width="120" height="28.75" as="geometry" />
        </mxCell>
        <mxCell id="OseakSPfjknjiO-h243P-9" style="edgeStyle=orthogonalEdgeStyle;rounded=0;orthogonalLoop=1;jettySize=auto;html=1;entryX=0;entryY=0.75;entryDx=0;entryDy=0;strokeWidth=2;" parent="1" source="OseakSPfjknjiO-h243P-6" target="OseakSPfjknjiO-h243P-7" edge="1">
          <mxGeometry relative="1" as="geometry" />
        </mxCell>
        <mxCell id="OseakSPfjknjiO-h243P-6" value="&lt;b&gt;&lt;font style=&quot;font-size: 18px;&quot;&gt;UCR&lt;/font&gt;&lt;/b&gt;" style="rounded=1;whiteSpace=wrap;html=1;" parent="1" vertex="1">
          <mxGeometry x="264" y="625" width="120" height="28.75" as="geometry" />
        </mxCell>
        <mxCell id="OseakSPfjknjiO-h243P-10" style="edgeStyle=orthogonalEdgeStyle;rounded=0;orthogonalLoop=1;jettySize=auto;html=1;entryX=1;entryY=0.5;entryDx=0;entryDy=0;exitX=0;exitY=0.25;exitDx=0;exitDy=0;strokeWidth=2;" parent="1" source="OseakSPfjknjiO-h243P-7" target="OseakSPfjknjiO-h243P-5" edge="1">
          <mxGeometry relative="1" as="geometry" />
        </mxCell>
        <mxCell id="OseakSPfjknjiO-h243P-7" value="UltraSonic Peripheral" style="rounded=1;whiteSpace=wrap;html=1;fontStyle=1;fontSize=21;verticalAlign=top;" parent="1" vertex="1">
          <mxGeometry x="487" y="597.5" width="243" height="110" as="geometry" />
        </mxCell>
        <mxCell id="OseakSPfjknjiO-h243P-12" value="&lt;b&gt;&lt;font style=&quot;font-size: 24px;&quot;&gt;APB&lt;/font&gt;&lt;/b&gt;&lt;div&gt;&lt;b&gt;&lt;font style=&quot;font-size: 24px;&quot;&gt;SLAVE INTERFACE&lt;/font&gt;&lt;/b&gt;&lt;/div&gt;" style="rounded=1;whiteSpace=wrap;html=1;verticalAlign=top;" parent="1" vertex="1">
          <mxGeometry x="150" y="825" width="250" height="455" as="geometry" />
        </mxCell>
        <mxCell id="OseakSPfjknjiO-h243P-13" value="&lt;span&gt;&lt;font&gt;IDR&lt;/font&gt;&lt;/span&gt;" style="rounded=1;whiteSpace=wrap;html=1;verticalAlign=top;fontSize=22;fontStyle=1" parent="1" vertex="1">
          <mxGeometry x="264" y="920" width="120" height="122.5" as="geometry" />
        </mxCell>
        <mxCell id="OseakSPfjknjiO-h243P-14" value="&lt;span&gt;&lt;font&gt;ODR&lt;/font&gt;&lt;/span&gt;" style="rounded=1;whiteSpace=wrap;html=1;verticalAlign=top;fontSize=22;fontStyle=1" parent="1" vertex="1">
          <mxGeometry x="264" y="1090" width="120" height="122.5" as="geometry" />
        </mxCell>
        <mxCell id="OseakSPfjknjiO-h243P-15" value="&lt;b&gt;&lt;font style=&quot;font-size: 18px;&quot;&gt;DDR&lt;/font&gt;&lt;/b&gt;" style="rounded=1;whiteSpace=wrap;html=1;" parent="1" vertex="1">
          <mxGeometry x="264" y="965" width="120" height="28.75" as="geometry" />
        </mxCell>
        <mxCell id="OseakSPfjknjiO-h243P-16" style="edgeStyle=orthogonalEdgeStyle;rounded=0;orthogonalLoop=1;jettySize=auto;html=1;entryX=0;entryY=0.75;entryDx=0;entryDy=0;strokeWidth=2;" parent="1" source="OseakSPfjknjiO-h243P-17" target="OseakSPfjknjiO-h243P-19" edge="1">
          <mxGeometry relative="1" as="geometry" />
        </mxCell>
        <mxCell id="OseakSPfjknjiO-h243P-17" value="&lt;b&gt;&lt;font style=&quot;font-size: 17px;&quot;&gt;DMR&lt;/font&gt;&lt;/b&gt;" style="rounded=1;whiteSpace=wrap;html=1;" parent="1" vertex="1">
          <mxGeometry x="264" y="1130" width="120" height="28.75" as="geometry" />
        </mxCell>
        <mxCell id="OseakSPfjknjiO-h243P-18" style="edgeStyle=orthogonalEdgeStyle;rounded=0;orthogonalLoop=1;jettySize=auto;html=1;entryX=1;entryY=0.5;entryDx=0;entryDy=0;exitX=0;exitY=0.25;exitDx=0;exitDy=0;strokeWidth=2;" parent="1" source="OseakSPfjknjiO-h243P-19" target="OseakSPfjknjiO-h243P-15" edge="1">
          <mxGeometry relative="1" as="geometry" />
        </mxCell>
        <mxCell id="OseakSPfjknjiO-h243P-19" value="Humidity Peripheral" style="rounded=1;whiteSpace=wrap;html=1;fontStyle=1;fontSize=21;verticalAlign=top;" parent="1" vertex="1">
          <mxGeometry x="480" y="1110" width="250" height="115" as="geometry" />
        </mxCell>
        <mxCell id="OseakSPfjknjiO-h243P-20" value="&lt;b&gt;&lt;font style=&quot;font-size: 24px;&quot;&gt;APB&lt;/font&gt;&lt;/b&gt;&lt;div&gt;&lt;b&gt;&lt;font style=&quot;font-size: 24px;&quot;&gt;SLAVE INTERFACE&lt;/font&gt;&lt;/b&gt;&lt;/div&gt;" style="rounded=1;whiteSpace=wrap;html=1;verticalAlign=top;" parent="1" vertex="1">
          <mxGeometry x="150" y="1335" width="250" height="455" as="geometry" />
        </mxCell>
        <mxCell id="OseakSPfjknjiO-h243P-22" value="&lt;span&gt;&lt;font&gt;ODR&lt;/font&gt;&lt;/span&gt;" style="rounded=1;whiteSpace=wrap;html=1;verticalAlign=top;fontSize=22;fontStyle=1" parent="1" vertex="1">
          <mxGeometry x="264" y="1495" width="120" height="122.5" as="geometry" />
        </mxCell>
        <mxCell id="OseakSPfjknjiO-h243P-24" style="edgeStyle=orthogonalEdgeStyle;rounded=0;orthogonalLoop=1;jettySize=auto;html=1;entryX=0;entryY=0.5;entryDx=0;entryDy=0;strokeWidth=2;" parent="1" source="OseakSPfjknjiO-h243P-25" target="OseakSPfjknjiO-h243P-27" edge="1">
          <mxGeometry relative="1" as="geometry" />
        </mxCell>
        <mxCell id="OseakSPfjknjiO-h243P-25" value="&lt;b&gt;&lt;font style=&quot;font-size: 17px;&quot;&gt;BDR&lt;/font&gt;&lt;/b&gt;" style="rounded=1;whiteSpace=wrap;html=1;" parent="1" vertex="1">
          <mxGeometry x="264" y="1535" width="120" height="28.75" as="geometry" />
        </mxCell>
        <mxCell id="OseakSPfjknjiO-h243P-27" value="Blink Peripheral" style="rounded=1;whiteSpace=wrap;html=1;fontStyle=1;fontSize=21;verticalAlign=top;" parent="1" vertex="1">
          <mxGeometry x="480" y="1620" width="250" height="115" as="geometry" />
        </mxCell>
        <mxCell id="OseakSPfjknjiO-h243P-30" value="" style="endArrow=none;html=1;rounded=0;entryX=0.002;entryY=0.351;entryDx=0;entryDy=0;entryPerimeter=0;strokeWidth=2;" parent="1" edge="1">
          <mxGeometry width="50" height="50" relative="1" as="geometry">
            <mxPoint x="114" y="483" as="sourcePoint" />
            <mxPoint x="164.5" y="483.2749999999999" as="targetPoint" />
          </mxGeometry>
        </mxCell>
        <mxCell id="OseakSPfjknjiO-h243P-31" value="" style="endArrow=none;html=1;rounded=0;entryX=0.002;entryY=0.351;entryDx=0;entryDy=0;entryPerimeter=0;strokeWidth=2;" parent="1" edge="1">
          <mxGeometry width="50" height="50" relative="1" as="geometry">
            <mxPoint x="114" y="509" as="sourcePoint" />
            <mxPoint x="164.5" y="509.2749999999999" as="targetPoint" />
          </mxGeometry>
        </mxCell>
        <mxCell id="OseakSPfjknjiO-h243P-32" value="" style="endArrow=none;html=1;rounded=0;entryX=0.002;entryY=0.351;entryDx=0;entryDy=0;entryPerimeter=0;strokeWidth=2;" parent="1" edge="1">
          <mxGeometry width="50" height="50" relative="1" as="geometry">
            <mxPoint x="114" y="537" as="sourcePoint" />
            <mxPoint x="164.5" y="537.2749999999999" as="targetPoint" />
          </mxGeometry>
        </mxCell>
        <mxCell id="OseakSPfjknjiO-h243P-33" value="" style="endArrow=none;html=1;rounded=0;entryX=0.002;entryY=0.351;entryDx=0;entryDy=0;entryPerimeter=0;strokeWidth=2;" parent="1" edge="1">
          <mxGeometry width="50" height="50" relative="1" as="geometry">
            <mxPoint x="114" y="565" as="sourcePoint" />
            <mxPoint x="164.5" y="565.2749999999999" as="targetPoint" />
          </mxGeometry>
        </mxCell>
        <mxCell id="OseakSPfjknjiO-h243P-34" value="" style="endArrow=none;html=1;rounded=0;entryX=0.002;entryY=0.351;entryDx=0;entryDy=0;entryPerimeter=0;strokeWidth=2;" parent="1" edge="1">
          <mxGeometry width="50" height="50" relative="1" as="geometry">
            <mxPoint x="114" y="593" as="sourcePoint" />
            <mxPoint x="164.5" y="593.2749999999999" as="targetPoint" />
          </mxGeometry>
        </mxCell>
        <mxCell id="OseakSPfjknjiO-h243P-35" value="" style="endArrow=none;html=1;rounded=0;entryX=0.002;entryY=0.351;entryDx=0;entryDy=0;entryPerimeter=0;strokeWidth=2;" parent="1" edge="1">
          <mxGeometry width="50" height="50" relative="1" as="geometry">
            <mxPoint x="114" y="621" as="sourcePoint" />
            <mxPoint x="164.5" y="621.2749999999999" as="targetPoint" />
          </mxGeometry>
        </mxCell>
        <mxCell id="OseakSPfjknjiO-h243P-36" value="" style="endArrow=none;html=1;rounded=0;entryX=0.002;entryY=0.351;entryDx=0;entryDy=0;entryPerimeter=0;strokeWidth=2;" parent="1" edge="1">
          <mxGeometry width="50" height="50" relative="1" as="geometry">
            <mxPoint x="114" y="649" as="sourcePoint" />
            <mxPoint x="164.5" y="649.2749999999999" as="targetPoint" />
          </mxGeometry>
        </mxCell>
        <mxCell id="OseakSPfjknjiO-h243P-37" value="" style="endArrow=none;html=1;rounded=0;entryX=0.002;entryY=0.351;entryDx=0;entryDy=0;entryPerimeter=0;strokeWidth=2;" parent="1" edge="1">
          <mxGeometry width="50" height="50" relative="1" as="geometry">
            <mxPoint x="114" y="990" as="sourcePoint" />
            <mxPoint x="164.5" y="990.2749999999999" as="targetPoint" />
          </mxGeometry>
        </mxCell>
        <mxCell id="OseakSPfjknjiO-h243P-38" value="" style="endArrow=none;html=1;rounded=0;entryX=0.002;entryY=0.351;entryDx=0;entryDy=0;entryPerimeter=0;strokeWidth=2;" parent="1" edge="1">
          <mxGeometry width="50" height="50" relative="1" as="geometry">
            <mxPoint x="114" y="1016" as="sourcePoint" />
            <mxPoint x="164.5" y="1016.2749999999999" as="targetPoint" />
          </mxGeometry>
        </mxCell>
        <mxCell id="OseakSPfjknjiO-h243P-39" value="" style="endArrow=none;html=1;rounded=0;entryX=0.002;entryY=0.351;entryDx=0;entryDy=0;entryPerimeter=0;strokeWidth=2;" parent="1" edge="1">
          <mxGeometry width="50" height="50" relative="1" as="geometry">
            <mxPoint x="114" y="1044" as="sourcePoint" />
            <mxPoint x="164.5" y="1044.2749999999999" as="targetPoint" />
          </mxGeometry>
        </mxCell>
        <mxCell id="OseakSPfjknjiO-h243P-40" value="" style="endArrow=none;html=1;rounded=0;entryX=0.002;entryY=0.351;entryDx=0;entryDy=0;entryPerimeter=0;strokeWidth=2;" parent="1" edge="1">
          <mxGeometry width="50" height="50" relative="1" as="geometry">
            <mxPoint x="114" y="1072" as="sourcePoint" />
            <mxPoint x="164.5" y="1072.2749999999999" as="targetPoint" />
          </mxGeometry>
        </mxCell>
        <mxCell id="OseakSPfjknjiO-h243P-41" value="" style="endArrow=none;html=1;rounded=0;entryX=0.002;entryY=0.351;entryDx=0;entryDy=0;entryPerimeter=0;strokeWidth=2;" parent="1" edge="1">
          <mxGeometry width="50" height="50" relative="1" as="geometry">
            <mxPoint x="114" y="1100" as="sourcePoint" />
            <mxPoint x="164.5" y="1100.2749999999999" as="targetPoint" />
          </mxGeometry>
        </mxCell>
        <mxCell id="OseakSPfjknjiO-h243P-42" value="" style="endArrow=none;html=1;rounded=0;entryX=0.002;entryY=0.351;entryDx=0;entryDy=0;entryPerimeter=0;strokeWidth=2;" parent="1" edge="1">
          <mxGeometry width="50" height="50" relative="1" as="geometry">
            <mxPoint x="114" y="1128" as="sourcePoint" />
            <mxPoint x="164.5" y="1128.2749999999999" as="targetPoint" />
          </mxGeometry>
        </mxCell>
        <mxCell id="OseakSPfjknjiO-h243P-43" value="" style="endArrow=none;html=1;rounded=0;entryX=0.002;entryY=0.351;entryDx=0;entryDy=0;entryPerimeter=0;strokeWidth=2;" parent="1" edge="1">
          <mxGeometry width="50" height="50" relative="1" as="geometry">
            <mxPoint x="114" y="1156" as="sourcePoint" />
            <mxPoint x="164.5" y="1156.2749999999999" as="targetPoint" />
          </mxGeometry>
        </mxCell>
        <mxCell id="OseakSPfjknjiO-h243P-44" value="" style="endArrow=none;html=1;rounded=0;entryX=0.002;entryY=0.351;entryDx=0;entryDy=0;entryPerimeter=0;strokeWidth=2;" parent="1" edge="1">
          <mxGeometry width="50" height="50" relative="1" as="geometry">
            <mxPoint x="114" y="1500" as="sourcePoint" />
            <mxPoint x="164.5" y="1500.2749999999999" as="targetPoint" />
          </mxGeometry>
        </mxCell>
        <mxCell id="OseakSPfjknjiO-h243P-45" value="" style="endArrow=none;html=1;rounded=0;entryX=0.002;entryY=0.351;entryDx=0;entryDy=0;entryPerimeter=0;strokeWidth=2;" parent="1" edge="1">
          <mxGeometry width="50" height="50" relative="1" as="geometry">
            <mxPoint x="114" y="1526" as="sourcePoint" />
            <mxPoint x="164.5" y="1526.2749999999999" as="targetPoint" />
          </mxGeometry>
        </mxCell>
        <mxCell id="OseakSPfjknjiO-h243P-46" value="" style="endArrow=none;html=1;rounded=0;entryX=0.002;entryY=0.351;entryDx=0;entryDy=0;entryPerimeter=0;strokeWidth=2;" parent="1" edge="1">
          <mxGeometry width="50" height="50" relative="1" as="geometry">
            <mxPoint x="114" y="1554" as="sourcePoint" />
            <mxPoint x="164.5" y="1554.2749999999999" as="targetPoint" />
          </mxGeometry>
        </mxCell>
        <mxCell id="OseakSPfjknjiO-h243P-47" value="" style="endArrow=none;html=1;rounded=0;entryX=0.002;entryY=0.351;entryDx=0;entryDy=0;entryPerimeter=0;strokeWidth=2;" parent="1" edge="1">
          <mxGeometry width="50" height="50" relative="1" as="geometry">
            <mxPoint x="114" y="1582" as="sourcePoint" />
            <mxPoint x="164.5" y="1582.2749999999999" as="targetPoint" />
          </mxGeometry>
        </mxCell>
        <mxCell id="OseakSPfjknjiO-h243P-48" value="" style="endArrow=none;html=1;rounded=0;entryX=0.002;entryY=0.351;entryDx=0;entryDy=0;entryPerimeter=0;strokeWidth=2;" parent="1" edge="1">
          <mxGeometry width="50" height="50" relative="1" as="geometry">
            <mxPoint x="114" y="1610" as="sourcePoint" />
            <mxPoint x="164.5" y="1610.2749999999999" as="targetPoint" />
          </mxGeometry>
        </mxCell>
        <mxCell id="OseakSPfjknjiO-h243P-49" value="" style="endArrow=none;html=1;rounded=0;entryX=0.002;entryY=0.351;entryDx=0;entryDy=0;entryPerimeter=0;strokeWidth=2;" parent="1" edge="1">
          <mxGeometry width="50" height="50" relative="1" as="geometry">
            <mxPoint x="114" y="1638" as="sourcePoint" />
            <mxPoint x="164.5" y="1638.2749999999999" as="targetPoint" />
          </mxGeometry>
        </mxCell>
        <mxCell id="OseakSPfjknjiO-h243P-50" value="" style="endArrow=none;html=1;rounded=0;entryX=0.002;entryY=0.351;entryDx=0;entryDy=0;entryPerimeter=0;strokeWidth=2;" parent="1" edge="1">
          <mxGeometry width="50" height="50" relative="1" as="geometry">
            <mxPoint x="114" y="1666" as="sourcePoint" />
            <mxPoint x="164.5" y="1666.2749999999999" as="targetPoint" />
          </mxGeometry>
        </mxCell>
      </root>
    </mxGraphModel>
  </diagram>
</mxfile>
